<svg viewBox="0 0 566.93 566.93" xmlns="http://www.w3.org/2000/svg" xmlns:xlink="http://www.w3.org/1999/xlink"><clipPath id="a"><path d="m47.24 0h472.44v566.93h-472.44z"/></clipPath><g clip-path="url(#a)"><path d="m122.84 510.24v37.79c0 10.44 8.46 18.9 18.9 18.9h359.06c10.44 0 18.9-8.46 18.9-18.9v-472.44c0-10.44-8.46-18.9-18.9-18.9h-37.79z" fill="#d3e2eb"/><path d="m66.14 491.33c0 10.44 8.46 18.9 18.9 18.9h359.06c10.44 0 18.9-8.46 18.9-18.9v-472.43c-.01-10.44-8.47-18.9-18.91-18.9h-359.06c-10.43 0-18.89 8.46-18.89 18.9v472.44z" fill="#ecf0f9"/><path d="m444.09 0h-26.23c10.43 0 18.89 8.46 18.89 18.9v472.43c0 10.44-8.46 18.9-18.9 18.9h26.23c10.44 0 18.9-8.46 18.9-18.9v-472.43c0-10.44-8.46-18.9-18.9-18.9z" fill="#d8e4f0"/><path d="m500.79 56.69h-26.23c10.44 0 18.9 8.46 18.9 18.9v472.43c0 10.44-8.46 18.9-18.9 18.9h26.23c10.44 0 18.9-8.46 18.9-18.9v-472.43c0-10.44-8.46-18.9-18.9-18.9z" fill="#b0c4d8"/><path d="m179.53 94.48c-41.75 0-75.59 33.84-75.59 75.59s33.84 75.59 75.59 75.59 75.59-33.84 75.59-75.59-33.84-75.59-75.59-75.59zm0 94.5c-10.44 0-18.9-8.46-18.9-18.9s8.46-18.9 18.9-18.9 18.9 8.46 18.9 18.9-8.46 18.9-18.9 18.9z" fill="#90c962"/><path d="m359.37 132.29h-57.34c-5.04 0-9.12-4.09-9.12-9.12v-19.54c0-5.04 4.09-9.12 9.12-9.12h57.34c5.04 0 9.12 4.09 9.12 9.12v19.54c0 5.04-4.09 9.12-9.12 9.12z" fill="#4c9cd6"/><g fill="#595a66"><path d="m425.19 178.64h-132.29c-4.73 0-8.56-3.83-8.56-8.56s3.83-8.56 8.56-8.56h132.29c4.73 0 8.56 3.83 8.56 8.56s-3.83 8.56-8.56 8.56z"/><path d="m425.19 216.43h-132.29c-4.73 0-8.56-3.83-8.56-8.56s3.83-8.56 8.56-8.56h132.29c4.73 0 8.56 3.83 8.56 8.56s-3.83 8.56-8.56 8.56z"/><path d="m368.5 254.22h-75.59c-4.73 0-8.56-3.83-8.56-8.56s3.83-8.56 8.56-8.56h75.59c4.73 0 8.56 3.83 8.56 8.56s-3.83 8.56-8.56 8.56z"/></g><path d="m170.39 359.06h-57.34c-5.04 0-9.12-4.09-9.12-9.12v-19.54c0-5.04 4.09-9.12 9.12-9.12h57.34c5.04 0 9.12 4.09 9.12 9.12v19.54c0 5.04-4.09 9.12-9.12 9.12z" fill="#4c9cd6"/><path d="m236.22 405.41h-132.29c-4.73 0-8.56-3.83-8.56-8.56s3.83-8.56 8.56-8.56h132.29c4.73 0 8.56 3.83 8.56 8.56s-3.83 8.56-8.56 8.56z" fill="#595a66"/><path d="m236.22 443.2h-132.29c-4.73 0-8.56-3.83-8.56-8.56s3.83-8.56 8.56-8.56h132.29c4.73 0 8.56 3.83 8.56 8.56s-3.83 8.56-8.56 8.56z" fill="#595a66"/><path d="m179.53 480.99h-75.59c-4.73 0-8.56-3.83-8.56-8.56s3.83-8.56 8.56-8.56h75.59c4.73 0 8.56 3.83 8.56 8.56s-3.83 8.56-8.56 8.56z" fill="#595a66"/><path d="m274.01 424.3c-2.19 0-4.37-.83-6.05-2.5-3.34-3.34-3.34-8.76 0-12.1l37.79-37.8c2.29-2.29 5.68-3.09 8.76-2.07l51.68 17.23 52.95-52.95c3.34-3.34 8.76-3.34 12.1 0s3.34 8.76 0 12.1l-56.69 56.69c-2.29 2.29-5.68 3.09-8.76 2.07l-51.68-17.23-34.06 34.06c-1.67 1.67-3.86 2.5-6.05 2.5z" fill="#4c9cd6"/><path d="m406.3 480.99h-132.29c-4.73 0-8.56-3.83-8.56-8.56s3.83-8.56 8.56-8.56h132.29c5.7 0 10.34-4.64 10.34-10.34v-132.29c0-4.73 3.83-8.56 8.56-8.56s8.56 3.83 8.56 8.56v132.29c0 15.14-12.31 27.45-27.45 27.45h-.01z" fill="#595a66"/><path d="m179.53 94.48v56.69c10.44 0 18.9 8.46 18.9 18.9 0 5.22-2.11 9.94-5.54 13.37l40.08 40.08c13.67-13.67 22.13-32.58 22.13-53.45 0-41.74-33.84-75.59-75.59-75.59h.01z" fill="#ffcb5b"/><path d="m113.7 75.59h-48.21c-10.08 0-18.25-8.17-18.25-18.25v-1.3c0-10.08 8.17-18.25 18.25-18.25h48.21c5.04 0 9.12 4.09 9.12 9.12v19.54c0 5.04-4.09 9.12-9.12 9.12z" fill="#ffcb5b"/><path d="m113.7 37.79h-26.23c5.04 0 9.12 4.09 9.12 9.12v19.54c0 5.04-4.09 9.12-9.12 9.12h26.23c5.04 0 9.12-4.09 9.12-9.12v-19.54c0-5.04-4.09-9.12-9.12-9.12z" fill="#ffb85b"/></g></svg>