<svg viewBox="0 0 566.93 566.93" xmlns="http://www.w3.org/2000/svg"><path d="m566.74 137.01v390.98c0 21.59-17.51 39.1-39.1 39.1h-488.73c-21.59 0-39.1-17.51-39.1-39.1v-390.98z" fill="#fff"/><path d="m566.74 68.58v87.97h-566.93v-87.97c0-21.59 17.5-39.1 39.1-39.1h488.73c21.59 0 39.1 17.51 39.1 39.1z" fill="#e64c3c"/><g fill="#95a5a5"><path d="m107.34 205.43h-39.1c-5.4 0-9.78 4.38-9.78 9.78v29.32c0 5.4 4.38 9.78 9.78 9.78h39.1c5.4 0 9.78-4.38 9.78-9.78v-29.32c0-5.4-4.38-9.78-9.78-9.78z"/><path d="m205.07 205.43h-39.1c-5.4 0-9.78 4.38-9.78 9.78v29.32c0 5.4 4.38 9.78 9.78 9.78h39.1c5.4 0 9.78-4.38 9.78-9.78v-29.32c0-5.4-4.38-9.78-9.78-9.78z"/><path d="m302.83 205.43h-39.1c-5.4 0-9.78 4.38-9.78 9.78v29.32c0 5.4 4.38 9.78 9.78 9.78h39.1c5.4 0 9.78-4.38 9.78-9.78v-29.32c0-5.4-4.38-9.78-9.78-9.78z"/><path d="m400.57 205.43h-39.1c-5.4 0-9.78 4.38-9.78 9.78v29.32c0 5.4 4.38 9.78 9.78 9.78h39.1c5.4 0 9.78-4.38 9.78-9.78v-29.32c0-5.4-4.38-9.78-9.78-9.78z"/><path d="m498.32 205.43h-39.1c-5.4 0-9.78 4.38-9.78 9.78v29.32c0 5.4 4.38 9.78 9.78 9.78h39.1c5.4 0 9.78-4.38 9.78-9.78v-29.32c0-5.4-4.38-9.78-9.78-9.78z"/><path d="m107.34 293.4h-39.1c-5.4 0-9.78 4.38-9.78 9.78v29.32c0 5.4 4.38 9.78 9.78 9.78h39.1c5.4 0 9.78-4.38 9.78-9.78v-29.32c0-5.4-4.38-9.78-9.78-9.78z"/><path d="m205.07 293.4h-39.1c-5.4 0-9.78 4.38-9.78 9.78v29.32c0 5.4 4.38 9.78 9.78 9.78h39.1c5.4 0 9.78-4.38 9.78-9.78v-29.32c0-5.4-4.38-9.78-9.78-9.78z"/><path d="m302.83 293.4h-39.1c-5.4 0-9.78 4.38-9.78 9.78v29.32c0 5.4 4.38 9.78 9.78 9.78h39.1c5.4 0 9.78-4.38 9.78-9.78v-29.32c0-5.4-4.38-9.78-9.78-9.78z"/><path d="m400.57 293.4h-39.1c-5.4 0-9.78 4.38-9.78 9.78v29.32c0 5.4 4.38 9.78 9.78 9.78h39.1c5.4 0 9.78-4.38 9.78-9.78v-29.32c0-5.4-4.38-9.78-9.78-9.78z"/><path d="m498.32 293.4h-39.1c-5.4 0-9.78 4.38-9.78 9.78v29.32c0 5.4 4.38 9.78 9.78 9.78h39.1c5.4 0 9.78-4.38 9.78-9.78v-29.32c0-5.4-4.38-9.78-9.78-9.78z"/><path d="m107.34 381.38h-39.1c-5.4 0-9.78 4.38-9.78 9.78v29.32c0 5.4 4.38 9.78 9.78 9.78h39.1c5.4 0 9.78-4.38 9.78-9.78v-29.32c0-5.4-4.38-9.78-9.78-9.78z"/><path d="m205.07 381.38h-39.1c-5.4 0-9.78 4.38-9.78 9.78v29.32c0 5.4 4.38 9.78 9.78 9.78h39.1c5.4 0 9.78-4.38 9.78-9.78v-29.32c0-5.4-4.38-9.78-9.78-9.78z"/><path d="m302.83 381.38h-39.1c-5.4 0-9.78 4.38-9.78 9.78v29.32c0 5.4 4.38 9.78 9.78 9.78h39.1c5.4 0 9.78-4.38 9.78-9.78v-29.32c0-5.4-4.38-9.78-9.78-9.78z"/><path d="m400.57 381.38h-39.1c-5.4 0-9.78 4.38-9.78 9.78v29.32c0 5.4 4.38 9.78 9.78 9.78h39.1c5.4 0 9.78-4.38 9.78-9.78v-29.32c0-5.4-4.38-9.78-9.78-9.78z"/><path d="m498.32 381.38h-39.1c-5.4 0-9.78 4.38-9.78 9.78v29.32c0 5.4 4.38 9.78 9.78 9.78h39.1c5.4 0 9.78-4.38 9.78-9.78v-29.32c0-5.4-4.38-9.78-9.78-9.78z"/><path d="m107.34 469.34h-39.1c-5.4 0-9.78 4.38-9.78 9.78v29.32c0 5.4 4.38 9.78 9.78 9.78h39.1c5.4 0 9.78-4.38 9.78-9.78v-29.32c0-5.4-4.38-9.78-9.78-9.78z"/><path d="m205.07 469.34h-39.1c-5.4 0-9.78 4.38-9.78 9.78v29.32c0 5.4 4.38 9.78 9.78 9.78h39.1c5.4 0 9.78-4.38 9.78-9.78v-29.32c0-5.4-4.38-9.78-9.78-9.78z"/><path d="m302.83 469.34h-39.1c-5.4 0-9.78 4.38-9.78 9.78v29.32c0 5.4 4.38 9.78 9.78 9.78h39.1c5.4 0 9.78-4.38 9.78-9.78v-29.32c0-5.4-4.38-9.78-9.78-9.78z"/><path d="m400.57 469.34h-39.1c-5.4 0-9.78 4.38-9.78 9.78v29.32c0 5.4 4.38 9.78 9.78 9.78h39.1c5.4 0 9.78-4.38 9.78-9.78v-29.32c0-5.4-4.38-9.78-9.78-9.78z"/><path d="m498.32 469.34h-39.1c-5.4 0-9.78 4.38-9.78 9.78v29.32c0 5.4 4.38 9.78 9.78 9.78h39.1c5.4 0 9.78-4.38 9.78-9.78v-29.32c0-5.4-4.38-9.78-9.78-9.78z"/></g><path d="m459.22 29.48c17.4 6.81 28.98 23.43 29.32 42.11-1.63 25.79-23.03 45.87-48.88 45.87s-47.24-20.09-48.88-45.87c.34-18.68 11.92-35.3 29.32-42.11h39.11z" fill="#c03a2b"/><path d="m146.42 29.48c17.4 6.81 28.98 23.43 29.32 42.11-.86 26.14-22.72 46.66-48.88 45.86-26.14.8-48.01-19.72-48.88-45.86.34-18.68 11.93-35.3 29.32-42.11h39.11z" fill="#c03a2b"/><path d="m439.67.16c10.8 0 19.55 8.75 19.55 19.55v39.1c0 10.8-8.75 19.55-19.55 19.55s-19.55-8.75-19.55-19.55v-39.09c0-10.8 8.75-19.55 19.55-19.55z" fill="#95a5a5"/><path d="m126.88.16c10.8 0 19.55 8.75 19.55 19.55v39.1c0 10.8-8.75 19.55-19.55 19.55s-19.55-8.75-19.55-19.55v-39.09c0-10.8 8.74-19.56 19.55-19.56z" fill="#95a5a5"/></svg>