<svg viewBox="0 0 737.01 283.46" xmlns="http://www.w3.org/2000/svg"><g fill="#fff"><path d="m238.59 93v92.59h-52.91v52.92h-145.5v-145.51h52.91v-52.92h92.59v26.46h-66.14v52.92h-52.91v92.59h92.6v-119.05h26.45v66.14h26.45v-66.14z"/><path d="m238.59 40.08v46.21h-26.46v-19.75h-19.73v-26.46z"/><path d="m127.2 119.46h25.51v66.14h-25.51z"/><path d="m94.03 145.91h25.51v39.68h-25.51z"/><path d="m290.61 92.55h14.33l27.78 45.99 27.78-45.99h14.33v82.2h-17.99v-45.09l-18.68 31.57h-10.87l-18.68-31.57v45.09h-17.99v-82.2z"/><path d="m436.41 158.82h-31.24l-5.63 15.94h-18.58l31.24-82.2h18.68l31.24 82.2h-20.07l-5.63-15.94zm-5.54-15.94-10.08-28.65-10.08 28.65h20.17z"/><path d="m522.4 108.79h-26.2v65.97h-17.99v-65.97h-26.2v-16.24h70.38v16.24z"/><path d="m526.84 162.65 40.04-54.06h-38.06v-15.94h62.48v12.1l-40.03 54.06h42.01v15.94h-66.43v-12.1z"/><path d="m618.57 92.55v82.2h-17.99v-82.2z"/><path d="m630.82 92.55h30.94c20.96 0 33.21 11.9 33.21 30.06s-12.26 30.26-33.21 30.26h-12.95v21.89h-17.99v-82.2zm30.16 44.08c9.98 0 16.01-4.84 16.01-14.02s-6.03-13.82-16.01-13.82h-12.16v27.84z"/></g></svg>