<?xml version="1.0" encoding="UTF-8"?>
<svg id="_레이어_1" xmlns="http://www.w3.org/2000/svg" xmlns:xlink="http://www.w3.org/1999/xlink" version="1.1" viewBox="0 0 737.01 283.46">
  <!-- Generator: Adobe Illustrator 29.5.1, SVG Export Plug-In . SVG Version: 2.1.0 Build 141)  -->
  <defs>
    <style>
      .st0 {
        fill: #002e3f;
      }

      .st1 {
        fill: #dc8928;
      }

      .st2 {
        fill: url(#_무제_그라디언트_2);
      }

      .st3 {
        fill: #32aca8;
      }

      .st4 {
        fill: #1679a8;
      }
    </style>
    <linearGradient id="_무제_그라디언트_2" data-name="무제 그라디언트 2" x1="40.18" y1="139.3" x2="238.59" y2="139.3" gradientUnits="userSpaceOnUse">
      <stop offset="0" stop-color="#56bcaa"/>
      <stop offset="1" stop-color="#0868aa"/>
    </linearGradient>
  </defs>
  <g>
    <polygon class="st2" points="238.59 93 238.59 185.59 185.68 185.59 185.68 238.51 40.18 238.51 40.18 93 93.09 93 93.09 40.08 185.68 40.08 185.68 66.54 119.54 66.54 119.54 119.46 66.63 119.46 66.63 212.05 159.23 212.05 159.23 93 185.68 93 185.68 159.14 212.13 159.14 212.13 93 238.59 93"/>
    <polygon class="st1" points="238.59 40.08 238.59 86.29 212.13 86.29 212.13 66.54 192.4 66.54 192.4 40.08 238.59 40.08"/>
    <rect class="st4" x="127.2" y="119.46" width="25.51" height="66.14"/>
    <rect class="st3" x="94.03" y="145.91" width="25.51" height="39.68"/>
  </g>
  <g>
    <path class="st0" d="M290.61,92.55h14.33l27.78,45.99,27.78-45.99h14.33v82.2h-17.99v-45.09l-18.68,31.57h-10.87l-18.68-31.57v45.09h-17.99v-82.2Z"/>
    <path class="st0" d="M436.41,158.82h-31.24l-5.63,15.94h-18.58l31.24-82.2h18.68l31.24,82.2h-20.07l-5.63-15.94ZM430.87,142.88l-10.08-28.65-10.08,28.65h20.17Z"/>
    <path class="st0" d="M522.4,108.79h-26.2v65.97h-17.99v-65.97h-26.2v-16.24h70.38v16.24Z"/>
    <path class="st0" d="M526.84,162.65l40.04-54.06h-38.06v-15.94h62.48v12.1l-40.03,54.06h42.01v15.94h-66.43v-12.1Z"/>
    <path class="st0" d="M618.57,92.55v82.2h-17.99v-82.2h17.99Z"/>
    <path class="st0" d="M630.82,92.55h30.94c20.96,0,33.21,11.9,33.21,30.06s-12.26,30.26-33.21,30.26h-12.95v21.89h-17.99v-82.2ZM660.98,136.63c9.98,0,16.01-4.84,16.01-14.02s-6.03-13.82-16.01-13.82h-12.16v27.84h12.16Z"/>
  </g>
</svg>