<?xml version="1.0" encoding="UTF-8"?>
<svg id="_레이어_1" data-name="레이어_1" xmlns="http://www.w3.org/2000/svg" version="1.1" viewBox="0 0 396.85 141.73">
  <!-- Generator: Adobe Illustrator 29.5.1, SVG Export Plug-In . SVG Version: 2.1.0 Build 141)  -->
  <defs>
    <style>
      .st0 {
        fill: #fff;
      }
    </style>
  </defs>
  <path class="st0" d="M28.36,36.3h12.05l23.36,38.69,23.37-38.69h12.05v69.14h-15.13v-37.93l-15.72,26.56h-9.15l-15.72-26.56v37.93h-15.13V36.3h.01Z"/>
  <path class="st0" d="M151,92.03h-26.28l-4.75,13.4h-15.63l26.28-69.14h15.72l26.28,69.14h-16.88l-4.75-13.4ZM146.34,78.63l-8.48-24.09-8.48,24.09h16.96Z"/>
  <path class="st0" d="M223.33,49.95h-22.04v55.49h-15.13v-55.49h-22.04v-13.67h59.19v13.67h.01Z"/>
  <path class="st0" d="M227.06,95.26l33.68-45.48h-32.01v-13.4h52.56v10.19l-33.68,45.48h35.34v13.4h-55.88v-10.19h-.01Z"/>
  <path class="st0" d="M304.22,36.3v69.14h-15.13V36.3h15.13Z"/>
  <path class="st0" d="M314.54,36.3h26.02c17.63,0,27.94,10.01,27.94,25.28s-10.31,25.45-27.94,25.45h-10.89v18.41h-15.13V36.3h0ZM339.89,73.37c8.4,0,13.47-4.07,13.47-11.8s-5.07-11.63-13.47-11.63h-10.23v23.41h10.23Z"/>
</svg>