<?xml version="1.0" encoding="UTF-8"?>
<svg id="_레이어_1" data-name="레이어_1" xmlns="http://www.w3.org/2000/svg" version="1.1" viewBox="0 0 283.46 283.46">
  <!-- Generator: Adobe Illustrator 29.4.0, SVG Export Plug-In . SVG Version: 2.1.0 Build 152)  -->
  <defs>
    <style>
      .st0 {
        fill: #fff;
      }
    </style>
  </defs>
  <g>
    <polygon class="st0" points="211.18 65.39 211.18 130.21 174.14 130.21 174.14 167.25 72.28 167.25 72.28 65.39 109.33 65.39 109.33 28.35 174.14 28.35 174.14 46.87 127.84 46.87 127.84 83.91 90.8 83.91 90.8 148.73 155.63 148.73 155.63 65.39 174.14 65.39 174.14 111.69 192.66 111.69 192.66 65.39 211.18 65.39"/>
    <polygon class="st0" points="211.18 28.35 211.18 60.69 192.66 60.69 192.66 46.87 178.84 46.87 178.84 28.35 211.18 28.35"/>
    <rect class="st0" x="133.21" y="83.91" width="17.86" height="46.3"/>
    <rect class="st0" x="109.98" y="102.43" width="17.86" height="27.78"/>
  </g>
  <g>
    <path class="st0" d="M14.17,203.26h9.04l17.52,29.02,17.53-29.02h9.04v51.86h-11.35v-28.45l-11.79,19.92h-6.86l-11.79-19.92v28.45h-11.35v-51.86Z"/>
    <path class="st0" d="M106.16,245.06h-19.71l-3.56,10.05h-11.72l19.71-51.86h11.79l19.71,51.86h-12.66l-3.56-10.05ZM102.66,235.01l-6.36-18.07-6.36,18.07h12.72Z"/>
    <path class="st0" d="M160.41,213.5h-16.53v41.62h-11.35v-41.62h-16.53v-10.25h44.4v10.25Z"/>
    <path class="st0" d="M163.21,247.48l25.26-34.11h-24.01v-10.05h39.42v7.64l-25.26,34.11h26.51v10.05h-41.91v-7.64Z"/>
    <path class="st0" d="M221.08,203.26v51.86h-11.35v-51.86h11.35Z"/>
    <path class="st0" d="M228.82,203.26h19.52c13.22,0,20.96,7.51,20.96,18.96s-7.73,19.09-20.96,19.09h-8.17v13.81h-11.35v-51.86ZM247.84,231.06c6.3,0,10.1-3.05,10.1-8.85s-3.8-8.72-10.1-8.72h-7.67v17.56h7.67Z"/>
  </g>
</svg>