<?xml version="1.0" encoding="UTF-8"?><svg id="_레이어_1" xmlns="http://www.w3.org/2000/svg" viewBox="0 0 566.93 566.93"><defs><style>.cls-1{fill:#888;}</style></defs><path class="cls-1" d="M406.3,330.71c0,6.26-2.59,12.27-7.2,16.7-4.61,4.43-10.86,6.92-17.37,6.92h-196.54c-6.52,0-12.76-2.49-17.37-6.92-4.61-4.43-7.2-10.44-7.2-16.7s2.59-12.27,7.2-16.7c4.61-4.43,10.86-6.92,17.37-6.92h196.54c6.52,0,12.76,2.49,17.37,6.92,4.61,4.43,7.2,10.44,7.2,16.7ZM308.03,401.57h-122.83c-6.52,0-12.76,2.49-17.37,6.92-4.61,4.43-7.2,10.44-7.2,16.7s2.59,12.27,7.2,16.7c4.61,4.43,10.86,6.92,17.37,6.92h122.83c6.52,0,12.76-2.49,17.37-6.92,4.61-4.43,7.2-10.44,7.2-16.7s-2.59-12.27-7.2-16.7c-4.61-4.43-10.86-6.92-17.37-6.92ZM529.13,247.68v201.14c-.04,31.31-12.99,61.33-36.02,83.47-23.02,22.14-54.25,34.6-86.81,34.64h-245.67c-32.57-.04-63.79-12.5-86.81-34.64-23.03-22.14-35.98-52.16-36.02-83.47V118.11c.04-31.31,12.99-61.33,36.02-83.47C96.84,12.49,128.06.04,160.63,0h110.92c22.59-.06,44.97,4.19,65.85,12.51,20.87,8.31,39.83,20.52,55.76,35.92l85.59,82.35c16.03,15.31,28.73,33.53,37.38,53.6,8.65,20.07,13.07,41.59,13.01,63.31ZM358.42,81.83c-7.73-7.2-16.41-13.4-25.82-18.43v101.95c0,6.26,2.59,12.27,7.2,16.7,4.61,4.43,10.86,6.92,17.37,6.92h106.03c-5.23-9.04-11.69-17.38-19.19-24.8l-85.59-82.35ZM480,247.68c0-3.9-.79-7.63-1.16-11.46h-121.68c-19.55,0-38.29-7.47-52.11-20.76-13.82-13.29-21.59-31.31-21.59-50.11V48.35c-3.98-.35-7.89-1.11-11.91-1.11h-110.92c-19.55,0-38.29,7.47-52.11,20.76-13.82,13.29-21.59,31.31-21.59,50.11v330.71c0,18.8,7.76,36.82,21.59,50.11,13.82,13.29,32.57,20.76,52.11,20.76h245.67c19.55,0,38.29-7.46,52.11-20.76,13.82-13.29,21.59-31.31,21.59-50.11v-201.14Z"/></svg>