<?xml version="1.0" encoding="UTF-8"?><svg id="_레이어_1" xmlns="http://www.w3.org/2000/svg" viewBox="0 0 566.93 566.93"><defs><style>.cls-1{fill:#888;}</style></defs><path class="cls-1" d="M413.39,45.36c-26.6.24-52.63,7.79-75.43,21.49-22.82,13.7-41.62,33.07-54.5,56.46-12.87-23.39-31.68-42.75-54.5-56.46-22.82-13.7-48.83-21.26-75.43-21.49-42.4,1.65-82.35,20.31-111.12,51.49C13.65,128.03-1.61,169.37,0,211.89,0,319.13,113.06,436.54,207.87,516.14c21.17,17.72,47.93,27.4,75.59,27.4s54.43-9.69,75.59-27.4c94.82-79.61,207.87-197.01,207.87-304.25,1.61-42.52-13.65-83.86-42.43-115.04-28.77-31.18-68.72-49.84-111.12-51.49ZM328.7,480c-12.66,10.63-28.68,16.54-45.24,16.54s-32.58-5.91-45.24-16.54C116.86,378.19,47.24,280.39,47.24,211.89c-1.61-30,8.65-59.29,28.56-81.73,19.91-22.21,47.86-35.91,77.74-37.56,29.88,1.65,57.83,15.35,77.74,37.56,19.91,22.44,30.16,51.73,28.56,81.73,0,6.14,2.48,12.28,6.92,16.54,4.42,4.49,10.44,7.08,16.7,7.08s12.28-2.6,16.7-7.08c4.44-4.25,6.92-10.4,6.92-16.54-1.61-30,8.65-59.29,28.56-81.73,19.91-22.21,47.86-35.91,77.74-37.56,29.88,1.65,57.83,15.35,77.74,37.56,19.91,22.44,30.16,51.73,28.56,81.73,0,68.5-69.61,166.3-190.98,267.88v.23Z"/></svg>