<?xml version="1.0" encoding="UTF-8"?><svg id="_레이어_1" xmlns="http://www.w3.org/2000/svg" viewBox="0 0 566.93 566.93"><defs><style>.cls-1{fill:#fff;}.cls-2{fill:#e64c3c;}.cls-3{fill:#c03a2b;}.cls-4{fill:#95a5a5;}</style></defs><path class="cls-1" d="M566.74,137.01v390.98c0,21.59-17.51,39.1-39.1,39.1H38.91c-21.59,0-39.1-17.51-39.1-39.1V137.01h566.93Z"/><path class="cls-2" d="M566.74,68.58v87.97H-.19v-87.97C-.19,46.99,17.31,29.48,38.91,29.48h488.73c21.59,0,39.1,17.51,39.1,39.1Z"/><path class="cls-4" d="M107.34,205.43h-39.1c-5.4,0-9.78,4.38-9.78,9.78v29.32c0,5.4,4.38,9.78,9.78,9.78h39.1c5.4,0,9.78-4.38,9.78-9.78v-29.32c0-5.4-4.38-9.78-9.78-9.78Z"/><path class="cls-4" d="M205.07,205.43h-39.1c-5.4,0-9.78,4.38-9.78,9.78v29.32c0,5.4,4.38,9.78,9.78,9.78h39.1c5.4,0,9.78-4.38,9.78-9.78v-29.32c0-5.4-4.38-9.78-9.78-9.78Z"/><path class="cls-4" d="M302.83,205.43h-39.1c-5.4,0-9.78,4.38-9.78,9.78v29.32c0,5.4,4.38,9.78,9.78,9.78h39.1c5.4,0,9.78-4.38,9.78-9.78v-29.32c0-5.4-4.38-9.78-9.78-9.78Z"/><path class="cls-4" d="M400.57,205.43h-39.1c-5.4,0-9.78,4.38-9.78,9.78v29.32c0,5.4,4.38,9.78,9.78,9.78h39.1c5.4,0,9.78-4.38,9.78-9.78v-29.32c0-5.4-4.38-9.78-9.78-9.78Z"/><path class="cls-4" d="M498.32,205.43h-39.1c-5.4,0-9.78,4.38-9.78,9.78v29.32c0,5.4,4.38,9.78,9.78,9.78h39.1c5.4,0,9.78-4.38,9.78-9.78v-29.32c0-5.4-4.38-9.78-9.78-9.78Z"/><path class="cls-4" d="M107.34,293.4h-39.1c-5.4,0-9.78,4.38-9.78,9.78v29.32c0,5.4,4.38,9.78,9.78,9.78h39.1c5.4,0,9.78-4.38,9.78-9.78v-29.32c0-5.4-4.38-9.78-9.78-9.78Z"/><path class="cls-4" d="M205.07,293.4h-39.1c-5.4,0-9.78,4.38-9.78,9.78v29.32c0,5.4,4.38,9.78,9.78,9.78h39.1c5.4,0,9.78-4.38,9.78-9.78v-29.32c0-5.4-4.38-9.78-9.78-9.78Z"/><path class="cls-4" d="M302.83,293.4h-39.1c-5.4,0-9.78,4.38-9.78,9.78v29.32c0,5.4,4.38,9.78,9.78,9.78h39.1c5.4,0,9.78-4.38,9.78-9.78v-29.32c0-5.4-4.38-9.78-9.78-9.78Z"/><path class="cls-4" d="M400.57,293.4h-39.1c-5.4,0-9.78,4.38-9.78,9.78v29.32c0,5.4,4.38,9.78,9.78,9.78h39.1c5.4,0,9.78-4.38,9.78-9.78v-29.32c0-5.4-4.38-9.78-9.78-9.78Z"/><path class="cls-4" d="M498.32,293.4h-39.1c-5.4,0-9.78,4.38-9.78,9.78v29.32c0,5.4,4.38,9.78,9.78,9.78h39.1c5.4,0,9.78-4.38,9.78-9.78v-29.32c0-5.4-4.38-9.78-9.78-9.78Z"/><path class="cls-4" d="M107.34,381.38h-39.1c-5.4,0-9.78,4.38-9.78,9.78v29.32c0,5.4,4.38,9.78,9.78,9.78h39.1c5.4,0,9.78-4.38,9.78-9.78v-29.32c0-5.4-4.38-9.78-9.78-9.78Z"/><path class="cls-4" d="M205.07,381.38h-39.1c-5.4,0-9.78,4.38-9.78,9.78v29.32c0,5.4,4.38,9.78,9.78,9.78h39.1c5.4,0,9.78-4.38,9.78-9.78v-29.32c0-5.4-4.38-9.78-9.78-9.78Z"/><path class="cls-4" d="M302.83,381.38h-39.1c-5.4,0-9.78,4.38-9.78,9.78v29.32c0,5.4,4.38,9.78,9.78,9.78h39.1c5.4,0,9.78-4.38,9.78-9.78v-29.32c0-5.4-4.38-9.78-9.78-9.78Z"/><path class="cls-4" d="M400.57,381.38h-39.1c-5.4,0-9.78,4.38-9.78,9.78v29.32c0,5.4,4.38,9.78,9.78,9.78h39.1c5.4,0,9.78-4.38,9.78-9.78v-29.32c0-5.4-4.38-9.78-9.78-9.78Z"/><path class="cls-4" d="M498.32,381.38h-39.1c-5.4,0-9.78,4.38-9.78,9.78v29.32c0,5.4,4.38,9.78,9.78,9.78h39.1c5.4,0,9.78-4.38,9.78-9.78v-29.32c0-5.4-4.38-9.78-9.78-9.78Z"/><path class="cls-4" d="M107.34,469.34h-39.1c-5.4,0-9.78,4.38-9.78,9.78v29.32c0,5.4,4.38,9.78,9.78,9.78h39.1c5.4,0,9.78-4.38,9.78-9.78v-29.32c0-5.4-4.38-9.78-9.78-9.78Z"/><path class="cls-4" d="M205.07,469.34h-39.1c-5.4,0-9.78,4.38-9.78,9.78v29.32c0,5.4,4.38,9.78,9.78,9.78h39.1c5.4,0,9.78-4.38,9.78-9.78v-29.32c0-5.4-4.38-9.78-9.78-9.78Z"/><path class="cls-4" d="M302.83,469.34h-39.1c-5.4,0-9.78,4.38-9.78,9.78v29.32c0,5.4,4.38,9.78,9.78,9.78h39.1c5.4,0,9.78-4.38,9.78-9.78v-29.32c0-5.4-4.38-9.78-9.78-9.78Z"/><path class="cls-4" d="M400.57,469.34h-39.1c-5.4,0-9.78,4.38-9.78,9.78v29.32c0,5.4,4.38,9.78,9.78,9.78h39.1c5.4,0,9.78-4.38,9.78-9.78v-29.32c0-5.4-4.38-9.78-9.78-9.78Z"/><path class="cls-4" d="M498.32,469.34h-39.1c-5.4,0-9.78,4.38-9.78,9.78v29.32c0,5.4,4.38,9.78,9.78,9.78h39.1c5.4,0,9.78-4.38,9.78-9.78v-29.32c0-5.4-4.38-9.78-9.78-9.78Z"/><path class="cls-3" d="M459.22,29.48c17.4,6.81,28.98,23.43,29.32,42.11-1.63,25.79-23.03,45.87-48.88,45.87s-47.24-20.09-48.88-45.87c.34-18.68,11.92-35.3,29.32-42.11h39.11Z"/><path class="cls-3" d="M146.42,29.48c17.4,6.81,28.98,23.43,29.32,42.11-.86,26.14-22.72,46.66-48.88,45.86-26.14.8-48.01-19.72-48.88-45.86.34-18.68,11.93-35.3,29.32-42.11h39.11Z"/><path class="cls-4" d="M439.67.16c10.8,0,19.55,8.75,19.55,19.55v39.1c0,10.8-8.75,19.55-19.55,19.55s-19.55-8.75-19.55-19.55V19.72c0-10.8,8.75-19.55,19.55-19.55Z"/><path class="cls-4" d="M126.88.16c10.8,0,19.55,8.75,19.55,19.55v39.1c0,10.8-8.75,19.55-19.55,19.55s-19.55-8.75-19.55-19.55V19.72C107.33,8.92,116.07.16,126.88.16Z"/></svg>