<?xml version="1.0" encoding="UTF-8"?><svg id="_레이어_1" xmlns="http://www.w3.org/2000/svg" viewBox="0 0 566.93 566.93"><defs><style>.cls-1{fill:#b7b7b7;}</style></defs><path class="cls-1" d="M173.11,566.98c-3.12.02-6.19-.57-9.07-1.75-2.88-1.18-5.5-2.91-7.7-5.1-2.22-2.2-3.97-4.82-5.17-7.68-1.2-2.88-1.82-5.98-1.82-9.09s.61-6.21,1.82-9.09c1.21-2.86,2.95-5.48,5.17-7.68l192.99-192.99c13.27-13.28,20.72-31.3,20.72-50.08s-7.44-36.78-20.72-50.08L156.34,40.44c-4.44-4.44-6.95-10.49-6.95-16.77s2.5-12.33,6.95-16.77C160.78,2.46,166.83-.05,173.11-.05s12.33,2.5,16.77,6.95l192.99,192.99c10.98,10.98,19.72,24,25.68,38.36,5.95,14.34,9.02,29.72,9.02,45.26s-3.07,30.92-9.02,45.26c-5.95,14.36-14.69,27.4-25.68,38.36l-192.99,192.99c-2.22,2.2-4.82,3.92-7.7,5.1-2.88,1.18-5.98,1.77-9.07,1.75Z"/></svg>