<?xml version="1.0" encoding="UTF-8"?><svg id="_레이어_1" xmlns="http://www.w3.org/2000/svg" viewBox="0 0 566.93 566.93"><defs><style>.cls-1{fill:#888;}</style></defs><path class="cls-1" d="M546.14,214.25L367.09,34.96C344.88,12.99,314.88.47,283.46.47s-61.42,12.52-83.62,34.49L20.79,214.25c-6.61,6.61-11.81,14.41-15.35,22.92C1.89,245.91,0,255.12,0,264.33v231.97C0,514.96,7.56,533.15,20.79,546.38c13.23,13.23,31.18,20.79,50.08,20.79h425.2c18.9,0,36.85-7.56,50.08-20.79,13.23-13.23,20.79-31.42,20.79-50.08v-231.97c0-9.21-1.89-18.42-5.43-27.16-3.54-8.5-8.74-16.3-15.35-22.92ZM354.33,519.92h-141.73v-93.07c0-18.66,7.56-36.85,20.79-50.08,13.23-13.23,31.18-20.79,50.08-20.79s36.85,7.56,50.08,20.79c13.23,13.23,20.79,31.42,20.79,50.08v93.07ZM519.69,496.3c0,6.14-2.6,12.28-6.85,16.53-4.49,4.49-10.39,7.09-16.77,7.09h-94.49v-93.07c0-31.18-12.52-61.18-34.49-83.38-22.2-22.21-52.2-34.73-83.62-34.73s-61.42,12.52-83.62,34.73c-21.97,22.2-34.49,52.2-34.49,83.38v93.07h-94.49c-6.14,0-12.28-2.6-16.77-7.09-4.25-4.25-6.85-10.39-6.85-16.53v-231.97c0-6.38,2.6-12.28,6.85-16.77L233.39,68.51c13.23-13.23,31.18-20.79,50.08-20.79s36.85,7.56,50.08,20.79l179.29,179.29c4.25,4.25,6.85,10.4,6.85,16.53v231.97Z"/></svg>