<?xml version="1.0" encoding="UTF-8"?><svg id="_레이어_1" xmlns="http://www.w3.org/2000/svg" viewBox="0 0 566.93 566.93"><defs><style>.cls-1{fill:#888;}</style></defs><path class="cls-1" d="M543.09,519.65H117.89c-18.8,0-36.83-7.46-50.1-20.76-13.3-13.27-20.76-31.3-20.76-50.1V23.59c0-6.26-2.48-12.28-6.92-16.7C35.69,2.44,29.67-.04,23.41-.04S11.12,2.44,6.71,6.89C2.26,11.3-.22,17.33-.22,23.59v425.2c.05,31.32,12.5,61.32,34.63,83.48,22.16,22.13,52.16,34.58,83.48,34.63h425.2c6.26,0,12.28-2.48,16.7-6.92,4.44-4.42,6.92-10.44,6.92-16.7s-2.48-12.28-6.92-16.7c-4.42-4.44-10.44-6.92-16.7-6.92Z"/><path class="cls-1" d="M141.52,472.4c6.26,0,12.28-2.48,16.7-6.92,4.44-4.44,6.92-10.44,6.92-16.7v-165.35c0-6.26-2.48-12.28-6.92-16.7-4.42-4.44-10.44-6.92-16.7-6.92s-12.26,2.48-16.7,6.92c-4.44,4.42-6.92,10.44-6.92,16.7v165.35c0,6.26,2.48,12.26,6.92,16.7,4.44,4.44,10.44,6.92,16.7,6.92Z"/><path class="cls-1" d="M236,236.18v212.6c0,6.26,2.48,12.28,6.92,16.7,4.42,4.44,10.44,6.92,16.7,6.92s12.26-2.48,16.7-6.92c4.42-4.42,6.92-10.44,6.92-16.7v-212.6c0-6.26-2.5-12.28-6.92-16.7-4.44-4.44-10.44-6.92-16.7-6.92s-12.28,2.48-16.7,6.92c-4.44,4.42-6.92,10.44-6.92,16.7Z"/><path class="cls-1" d="M354.11,307.05v141.73c0,6.26,2.48,12.28,6.92,16.7,4.42,4.44,10.44,6.92,16.7,6.92s12.28-2.48,16.7-6.92c4.44-4.42,6.92-10.44,6.92-16.7v-141.73c0-6.26-2.48-12.28-6.92-16.7-4.42-4.44-10.44-6.92-16.7-6.92s-12.28,2.48-16.7,6.92c-4.44,4.42-6.92,10.44-6.92,16.7Z"/><path class="cls-1" d="M472.22,212.56v236.22c0,6.26,2.5,12.26,6.92,16.7,4.44,4.44,10.44,6.92,16.7,6.92s12.28-2.48,16.7-6.92c4.44-4.44,6.92-10.44,6.92-16.7v-236.22c0-6.26-2.48-12.28-6.92-16.7-4.42-4.44-10.44-6.92-16.7-6.92s-12.26,2.48-16.7,6.92c-4.42,4.42-6.92,10.44-6.92,16.7Z"/><path class="cls-1" d="M141.52,212.56c6.26,0,12.26-2.5,16.7-6.92l84.71-84.71c4.49-4.3,10.49-6.68,16.7-6.68s12.19,2.39,16.7,6.68l51.31,51.31c13.27,13.27,31.3,20.74,50.1,20.74s36.8-7.47,50.1-20.74l131.95-131.95c4.3-4.46,6.69-10.42,6.64-16.6-.07-6.21-2.55-12.12-6.92-16.51-4.39-4.37-10.32-6.85-16.51-6.92-6.19-.05-12.16,2.34-16.6,6.64l-131.95,131.93c-4.44,4.42-10.44,6.92-16.7,6.92s-12.28-2.5-16.7-6.92l-51.31-51.28c-13.3-13.27-31.32-20.74-50.1-20.74s-36.83,7.47-50.1,20.74l-84.71,84.71c-3.31,3.31-5.55,7.51-6.47,12.09-.9,4.58-.43,9.33,1.35,13.65,1.8,4.3,4.82,7.98,8.69,10.58,3.9,2.6,8.46,3.99,13.13,3.99Z"/></svg>