<?xml version="1.0" encoding="UTF-8"?><svg id="_레이어_1" xmlns="http://www.w3.org/2000/svg" viewBox="0 0 566.93 566.93"><defs><style>.cls-1{fill:#888;}</style></defs><path class="cls-1" d="M448.82,47.24h-23.62v-23.62c0-6.26-2.49-12.27-6.92-16.7-4.43-4.43-10.44-6.92-16.7-6.92s-12.27,2.49-16.7,6.92c-4.43,4.43-6.92,10.44-6.92,16.7v23.62h-188.98v-23.62c0-6.26-2.49-12.27-6.92-16.7-4.43-4.43-10.44-6.92-16.7-6.92s-12.27,2.49-16.7,6.92c-4.43,4.43-6.92,10.44-6.92,16.7v23.62h-23.62c-31.31.04-61.33,12.49-83.48,34.64C12.49,104.02.04,134.04,0,165.35v283.46c.04,31.31,12.49,61.33,34.64,83.48,22.14,22.14,52.16,34.6,83.48,34.63h330.71c31.31-.04,61.33-12.49,83.48-34.63,22.14-22.14,34.6-52.16,34.63-83.48V165.35c-.04-31.31-12.49-61.33-34.63-83.48-22.14-22.14-52.16-34.6-83.48-34.64ZM47.24,165.35c0-18.79,7.47-36.82,20.76-50.11,13.29-13.29,31.32-20.76,50.11-20.76h330.71c18.8,0,36.82,7.47,50.11,20.76,13.29,13.29,20.76,31.32,20.76,50.11v23.62H47.24v-23.62ZM448.82,519.69H118.11c-18.79,0-36.82-7.47-50.11-20.76-13.29-13.29-20.76-31.31-20.76-50.11v-212.6h472.44v212.6c0,18.8-7.47,36.82-20.76,50.11-13.29,13.29-31.31,20.76-50.11,20.76Z"/><path class="cls-1" d="M283.46,389.76c19.57,0,35.43-15.86,35.43-35.43s-15.86-35.43-35.43-35.43-35.43,15.86-35.43,35.43,15.86,35.43,35.43,35.43Z"/><path class="cls-1" d="M165.35,389.76c19.57,0,35.43-15.86,35.43-35.43s-15.86-35.43-35.43-35.43-35.43,15.86-35.43,35.43,15.86,35.43,35.43,35.43Z"/><path class="cls-1" d="M401.57,389.76c19.57,0,35.43-15.86,35.43-35.43s-15.86-35.43-35.43-35.43-35.43,15.86-35.43,35.43,15.86,35.43,35.43,35.43Z"/></svg>