<?xml version="1.0" encoding="UTF-8"?><svg id="_레이어_1" xmlns="http://www.w3.org/2000/svg" viewBox="0 0 566.93 566.93"><defs><style>.cls-1{fill:#888;}</style></defs><path class="cls-1" d="M177.12,566.93c-42.78-.03-84.11-15.52-116.35-43.62C28.53,495.21,7.53,456.4,1.67,414.04c-5.86-42.36,3.8-85.41,27.2-121.2,23.4-35.8,58.97-61.92,100.13-73.56,29.92-8.56,61.59-8.96,91.71-1.13L407.6,31.39c9.92-9.99,21.73-17.9,34.73-23.29C455.34,2.71,469.29-.04,483.37,0c22.16.02,43.4,8.82,59.07,24.49,15.67,15.66,24.48,36.89,24.5,59.04.04,14.07-2.72,28.02-8.1,41.02-5.39,13-13.3,24.81-23.28,34.74l-15.88,15.87c-8.89,8.82-20.89,13.79-33.41,13.82h-37.48v23.62c0,12.53-4.98,24.55-13.84,33.41-8.87,8.86-20.89,13.84-33.42,13.84h-23.63v37.46c.02,6.21-1.2,12.35-3.58,18.09s-5.87,10.94-10.27,15.31l-15.36,15.35c7.87,30.1,7.48,61.76-1.11,91.66-9.67,34.06-29.3,64.46-56.36,87.31-27.06,22.85-60.33,37.1-95.55,40.93-6.16.64-12.34.96-18.53.97ZM177.12,259.84c-24.2-.02-47.92,6.7-68.49,19.43-20.58,12.72-37.19,30.93-47.98,52.58-10.79,21.65-15.31,45.88-13.07,69.96,2.24,24.08,11.17,47.06,25.77,66.35,14.6,19.28,34.29,34.11,56.87,42.82,22.57,8.71,47.13,10.94,70.91,6.45,23.77-4.49,45.82-15.53,63.67-31.86,17.84-16.34,30.77-37.33,37.32-60.6,7.37-25.59,6.55-52.85-2.36-77.95-1.45-4.19-1.7-8.71-.7-13.03s3.19-8.28,6.33-11.42l25.24-25.25v-37.46c0-12.53,4.98-24.55,13.84-33.41,8.86-8.86,20.89-13.84,33.42-13.84h23.63v-23.62c0-12.53,4.98-24.55,13.84-33.41,8.86-8.86,20.89-13.84,33.42-13.84h37.48l15.88-15.87c5.58-5.55,10-12.15,13.01-19.41,3.01-7.27,4.55-15.06,4.53-22.92,0-9.62-3.83-18.84-10.63-25.64-6.8-6.8-16.02-10.63-25.64-10.64-7.87-.02-15.67,1.52-22.94,4.53-7.28,3.01-13.88,7.44-19.43,13.02l-196.87,196.77c-3.14,3.14-7.11,5.33-11.44,6.32-4.33.99-8.85.74-13.05-.72-13.7-4.82-28.13-7.3-42.65-7.32h.12ZM117.93,425.2c0,4.67,1.39,9.24,3.98,13.12,2.6,3.89,6.29,6.91,10.61,8.7,4.32,1.79,9.07,2.26,13.65,1.35,4.58-.91,8.79-3.16,12.1-6.47,3.3-3.3,5.56-7.51,6.47-12.09.91-4.58.44-9.33-1.34-13.65-1.79-4.32-4.82-8.01-8.7-10.6-3.89-2.59-8.46-3.98-13.13-3.98-6.27,0-12.28,2.49-16.71,6.92-4.43,4.43-6.92,10.44-6.92,16.7Z"/></svg>