<?xml version="1.0" encoding="UTF-8"?><svg id="_레이어_1" xmlns="http://www.w3.org/2000/svg" viewBox="0 0 566.93 566.93"><defs><style>.cls-1{fill:#888;}</style></defs><path class="cls-1" d="M165.35,331.05c0,6.27-2.49,12.28-6.92,16.7-4.43,4.43-10.44,6.92-16.7,6.92h-23.62c-6.26,0-12.27-2.49-16.7-6.92-4.43-4.43-6.92-10.44-6.92-16.7s2.49-12.27,6.92-16.7c4.43-4.43,10.44-6.92,16.7-6.92h23.62c6.26,0,12.27,2.49,16.7,6.92,4.43,4.43,6.92,10.44,6.92,16.7ZM259.84,307.43h-23.62c-6.27,0-12.28,2.49-16.7,6.92-4.43,4.43-6.92,10.44-6.92,16.7s2.49,12.28,6.92,16.7c4.43,4.43,10.44,6.92,16.7,6.92h23.62c6.27,0,12.28-2.49,16.7-6.92,4.43-4.43,6.92-10.44,6.92-16.7s-2.49-12.27-6.92-16.7c-4.43-4.43-10.44-6.92-16.7-6.92ZM141.73,401.91h-23.62c-6.26,0-12.27,2.49-16.7,6.92-4.43,4.43-6.92,10.44-6.92,16.7s2.49,12.27,6.92,16.7c4.43,4.43,10.44,6.92,16.7,6.92h23.62c6.26,0,12.27-2.49,16.7-6.92,4.43-4.43,6.92-10.44,6.92-16.7s-2.49-12.27-6.92-16.7c-4.43-4.43-10.44-6.92-16.7-6.92ZM259.84,401.91h-23.62c-6.27,0-12.28,2.49-16.7,6.92-4.43,4.43-6.92,10.44-6.92,16.7s2.49,12.27,6.92,16.7c4.43,4.43,10.44,6.92,16.7,6.92h23.62c6.27,0,12.28-2.49,16.7-6.92,4.43-4.43,6.92-10.44,6.92-16.7s-2.49-12.27-6.92-16.7c-4.43-4.43-10.44-6.92-16.7-6.92ZM141.73,118.45h-23.62c-6.26,0-12.27,2.49-16.7,6.92-4.43,4.43-6.92,10.44-6.92,16.7s2.49,12.27,6.92,16.7c4.43,4.43,10.44,6.92,16.7,6.92h23.62c6.26,0,12.27-2.49,16.7-6.92,4.43-4.43,6.92-10.44,6.92-16.7s-2.49-12.27-6.92-16.7c-4.43-4.43-10.44-6.92-16.7-6.92ZM259.84,118.45h-23.62c-6.27,0-12.28,2.49-16.7,6.92-4.43,4.43-6.92,10.44-6.92,16.7s2.49,12.27,6.92,16.7c4.43,4.43,10.44,6.92,16.7,6.92h23.62c6.27,0,12.28-2.49,16.7-6.92,4.43-4.43,6.92-10.44,6.92-16.7s-2.49-12.27-6.92-16.7c-4.43-4.43-10.44-6.92-16.7-6.92ZM141.73,212.94h-23.62c-6.26,0-12.27,2.49-16.7,6.92-4.43,4.43-6.92,10.44-6.92,16.7s2.49,12.27,6.92,16.7c4.43,4.43,10.44,6.92,16.7,6.92h23.62c6.26,0,12.27-2.49,16.7-6.92,4.43-4.43,6.92-10.44,6.92-16.7s-2.49-12.27-6.92-16.7c-4.43-4.43-10.44-6.92-16.7-6.92ZM259.84,212.94h-23.62c-6.27,0-12.28,2.49-16.7,6.92-4.43,4.43-6.92,10.44-6.92,16.7s2.49,12.27,6.92,16.7c4.43,4.43,10.44,6.92,16.7,6.92h23.62c6.27,0,12.28-2.49,16.7-6.92,4.43-4.43,6.92-10.44,6.92-16.7s-2.49-12.27-6.92-16.7c-4.43-4.43-10.44-6.92-16.7-6.92ZM566.93,236.56v212.6c-.04,31.31-12.49,61.33-34.64,83.47-22.14,22.14-52.16,34.6-83.47,34.64H118.11c-31.31-.04-61.33-12.49-83.47-34.64C12.49,510.49.04,480.47,0,449.16V118.45c.04-31.31,12.49-61.33,34.64-83.47C56.78,12.83,86.8.38,118.11.34h141.73c31.32.04,61.34,12.49,83.48,34.64,22.14,22.14,34.6,52.16,34.64,83.47h70.87c31.31.04,61.33,12.49,83.47,34.64,22.14,22.14,34.6,52.16,34.64,83.48ZM118.11,520.02h212.6V118.45c0-18.79-7.47-36.82-20.76-50.11-13.29-13.29-31.32-20.76-50.11-20.76H118.11c-18.79,0-36.82,7.47-50.11,20.76-13.29,13.29-20.76,31.32-20.76,50.11v330.71c0,18.8,7.47,36.82,20.76,50.11,13.29,13.29,31.32,20.76,50.11,20.76ZM519.69,236.56c0-18.79-7.47-36.82-20.76-50.11-13.29-13.29-31.31-20.76-50.11-20.76h-70.87v354.33h70.87c18.8,0,36.82-7.47,50.11-20.76,13.29-13.29,20.76-31.31,20.76-50.11v-212.6ZM448.82,307.43c-4.67,0-9.24,1.38-13.13,3.98-3.88,2.6-6.91,6.28-8.7,10.6-1.79,4.31-2.26,9.06-1.35,13.65.91,4.58,3.16,8.79,6.47,12.09,3.3,3.3,7.51,5.55,12.09,6.47,4.58.91,9.33.44,13.65-1.35,4.32-1.79,8.01-4.82,10.6-8.7,2.6-3.88,3.98-8.45,3.98-13.13,0-6.26-2.49-12.27-6.92-16.7-4.43-4.43-10.44-6.92-16.7-6.92ZM448.82,401.91c-4.67,0-9.24,1.39-13.13,3.98-3.88,2.59-6.91,6.28-8.7,10.6-1.79,4.32-2.26,9.07-1.35,13.65.91,4.58,3.16,8.79,6.47,12.1,3.3,3.3,7.51,5.55,12.09,6.47,4.58.91,9.33.44,13.65-1.35,4.32-1.79,8.01-4.82,10.6-8.7,2.6-3.88,3.98-8.45,3.98-13.12,0-6.27-2.49-12.27-6.92-16.7-4.43-4.43-10.44-6.92-16.7-6.92ZM448.82,212.94c-4.67,0-9.24,1.39-13.13,3.98-3.88,2.6-6.91,6.28-8.7,10.6-1.79,4.32-2.26,9.07-1.35,13.65.91,4.58,3.16,8.79,6.47,12.1,3.3,3.3,7.51,5.55,12.09,6.46,4.58.91,9.33.44,13.65-1.34,4.32-1.79,8.01-4.82,10.6-8.7,2.6-3.88,3.98-8.45,3.98-13.12,0-6.27-2.49-12.27-6.92-16.7-4.43-4.43-10.44-6.92-16.7-6.92Z"/></svg>