<?xml version="1.0" encoding="UTF-8"?><svg id="_레이어_1" xmlns="http://www.w3.org/2000/svg" viewBox="0 0 566.93 566.93"><defs><style>.cls-1{fill:#888;}</style></defs><path class="cls-1" d="M541.91,258.9H24.28c-13.61,0-24.64,10.87-24.64,24.57s11.03,24.57,24.64,24.57h517.63c13.63,0,24.66-10.87,24.66-24.57s-11.03-24.57-24.66-24.57Z"/><path class="cls-1" d="M24.28,135.59h517.63c13.63,0,24.66-11.1,24.66-24.57s-11.03-24.8-24.66-24.8H24.28c-13.61,0-24.64,11.1-24.64,24.8s11.03,24.57,24.64,24.57Z"/><path class="cls-1" d="M541.91,431.34H24.28c-13.61,0-24.64,11.1-24.64,24.57s11.03,24.8,24.64,24.8h517.63c13.63,0,24.66-11.1,24.66-24.8s-11.03-24.57-24.66-24.57Z"/></svg>