<?xml version="1.0" encoding="UTF-8"?><svg id="_레이어_1" xmlns="http://www.w3.org/2000/svg" viewBox="0 0 566.93 566.93"><defs><style>.cls-1{fill:#3e2723;}</style></defs><g id="Layer_2"><g id="_56.kakao-talk"><path id="icon" class="cls-1" d="M223.52,219.86l-16.34,46.08h32.62l-16.29-46.08ZM223.52,219.86l-16.34,46.08h32.62l-16.29-46.08ZM283.46,23.65C126.94,23.65,0,123.02,0,245.63c0,79.32,53.03,148.84,132.87,188.12-39.63,135.81-62.93,144.67,100.24,30.41,16.68,2.35,33.51,3.52,50.35,3.5,156.52,0,283.46-99.42,283.46-222.03S439.99,23.65,283.46,23.65ZM126.73,323.14c-28.29,0-11.6-39.12-16.34-111.99-10.31-1.75-41.59,7.01-41.59-15.93.06-8.8,7.22-15.9,16.03-15.87,59.48,4.23,99.78-11.08,99.78,15.87,0,23.35-30.1,13.97-41.54,15.93-4.74,72.62,11.91,111.99-16.34,111.99h0ZM280.53,320.67c-25.41,11.54-26.03-14.48-32.11-25.77h-49.84c-6.13,11.54-6.65,37.52-32.11,25.77-19.12-8.76,12.01-53.24,35.25-125.34,3.89-12.03,16.78-18.63,28.81-14.74,7,2.26,12.48,7.74,14.74,14.74,23.71,73.49,54.48,116.58,35.25,125.34h0ZM310.73,320.67c-27.37,0-10.72-36.95-15.46-125.24,0-21.49,33.4-21.44,33.4,0v95.55c15.77,2.11,50.41-7.78,50.41,14.89-.21,23.97-37.42,11.85-68.34,14.89v-.1ZM461.94,315.98l-38.35-50.51-5.67,5.67v35.51c0,8.99-7.29,16.29-16.29,16.29-.03,0-.07,0-.1,0-28.4,0-11.39-40.92-16.34-127.4.06-8.98,7.35-16.23,16.34-16.23,24.69,0,14.02,34.89,16.34,51.18,46.39-44.27,45.2-48.96,54.73-48.96,13.14,0,21.18,16.34,12.42,25l-37.26,37.01,40.25,52.98c13.14,17.16-13.09,36.75-26.08,19.58v-.1ZM207.19,265.93h32.62l-16.29-46.08-16.34,46.08ZM223.52,219.86l-16.34,46.08h32.62l-16.29-46.08ZM223.52,219.86l-16.34,46.08h32.62l-16.29-46.08Z"/></g></g></svg>