<?xml version="1.0" encoding="UTF-8"?><svg id="_레이어_1" xmlns="http://www.w3.org/2000/svg" viewBox="0 0 566.93 566.93"><defs><style>.cls-1{fill:#b7b7b7;}</style></defs><path class="cls-1" d="M179.13,495.7c9.14,21.02,24.22,38.91,43.39,51.48,19.17,12.57,41.59,19.26,64.51,19.26s45.35-6.7,64.52-19.26c19.17-12.57,34.25-30.46,43.39-51.48h-215.82Z"/><path class="cls-1" d="M532.09,296.42l-40.94-134.96c-13.11-47.2-41.61-88.67-80.98-117.82C370.8,14.49,322.82-.68,273.85.55c-48.97,1.23-96.13,18.78-133.99,49.88-37.86,31.09-64.24,73.94-74.96,121.74l-31.79,130.57c-4.22,17.35-4.45,35.43-.67,52.88,3.78,17.45,11.48,33.82,22.52,47.86,11.03,14.04,25.11,25.39,41.17,33.2,16.06,7.81,33.68,11.86,51.54,11.86h271.59c18.41,0,36.57-4.31,53.01-12.59,16.44-8.28,30.72-20.29,41.69-35.08,10.97-14.79,18.32-31.94,21.47-50.07,3.15-18.14,2.01-36.77-3.34-54.38h0Z"/></svg>