<?xml version="1.0" encoding="UTF-8"?><svg id="_레이어_1" xmlns="http://www.w3.org/2000/svg" viewBox="0 0 566.93 566.93"><defs><style>.cls-1{fill:#888;}</style></defs><path class="cls-1" d="M496.06,141.73h-70.87c0-37.59-14.93-73.64-41.51-100.22C357.1,14.93,321.05,0,283.46,0s-73.64,14.93-100.22,41.51c-26.58,26.58-41.51,62.63-41.51,100.22h-70.87c-18.79,0-36.82,7.47-50.11,20.76C7.47,175.78,0,193.8,0,212.6v236.22c.04,31.31,12.49,61.33,34.64,83.47,22.14,22.14,52.16,34.6,83.48,34.64h330.71c31.31-.04,61.33-12.5,83.47-34.64,22.14-22.14,34.6-52.16,34.64-83.47v-236.22c0-18.79-7.46-36.82-20.76-50.11-13.29-13.29-31.31-20.76-50.11-20.76ZM283.46,47.24c25.06,0,49.09,9.95,66.81,27.67,17.72,17.72,27.67,41.75,27.67,66.81h-188.98c0-25.06,9.95-49.09,27.67-66.81,17.72-17.72,41.75-27.67,66.81-27.67ZM519.69,448.82c0,18.8-7.46,36.82-20.76,50.11-13.29,13.29-31.31,20.76-50.11,20.76H118.11c-18.79,0-36.82-7.46-50.11-20.76-13.29-13.29-20.76-31.31-20.76-50.11v-236.22c0-6.26,2.49-12.27,6.92-16.7,4.43-4.43,10.44-6.92,16.7-6.92h70.87v47.24c0,6.26,2.49,12.27,6.92,16.7,4.43,4.43,10.44,6.92,16.7,6.92s12.27-2.49,16.7-6.92c4.43-4.43,6.92-10.44,6.92-16.7v-47.24h188.98v47.24c0,6.26,2.49,12.27,6.92,16.7,4.43,4.43,10.44,6.92,16.7,6.92s12.27-2.49,16.7-6.92c4.43-4.43,6.92-10.44,6.92-16.7v-47.24h70.87c6.27,0,12.27,2.49,16.7,6.92,4.43,4.43,6.92,10.44,6.92,16.7v236.22Z"/></svg>