<?xml version="1.0" encoding="UTF-8"?><svg id="_레이어_1" xmlns="http://www.w3.org/2000/svg" viewBox="0 0 566.93 566.93"><defs><style>.cls-1{fill:#888;}</style></defs><path class="cls-1" d="M283.09,283.58c18.66,0,36.85-5.43,52.44-15.83,15.59-10.39,27.64-25.27,34.72-42.52,7.32-17.24,9.21-36.14,5.44-54.57-3.54-18.43-12.52-35.2-25.75-48.42-13.23-13.23-30-22.21-48.42-25.75-18.43-3.78-37.32-1.89-54.57,5.2-17.24,7.32-32.13,19.37-42.52,34.96-10.4,15.59-15.83,33.78-15.83,52.44,0,25.04,9.92,49.13,27.64,66.85,17.72,17.72,41.81,27.64,66.85,27.64ZM283.09,141.85c9.21,0,18.43,2.83,26.22,8.03,7.79,5.2,13.94,12.52,17.48,21.02,3.54,8.74,4.49,18.19,2.6,27.4-1.89,9.21-6.38,17.48-12.99,24.09-6.61,6.61-14.88,11.1-24.09,12.99-9.21,1.89-18.66.95-27.4-2.6-8.5-3.54-15.82-9.69-21.02-17.48-5.2-7.79-8.03-16.77-8.03-26.22,0-12.52,4.96-24.57,13.7-33.31s21.02-13.94,33.54-13.94ZM487.66,216.5l-17.01-5.67c3.07-26.46.47-53.39-7.56-78.66-8.03-25.51-21.26-48.9-38.98-68.74-17.72-19.84-39.45-35.91-63.78-46.77C336,5.79,309.78.12,283.09.12s-53.62,5.91-78.19,17.01c-24.56,11.1-46.53,27.4-64.25,47.95-17.72,20.31-30.71,44.17-38.5,69.92-7.56,25.99-9.68,53.15-6.14,79.84-22.44,4.25-43.46,14.88-60,30.71-11.57,11.1-20.79,24.33-27.17,38.98-6.14,14.65-9.21,30.47-9.21,46.3v96.38c0,25.51,8.27,50.32,23.62,70.63,15.35,20.55,36.85,35.43,61.42,42.76l67.8,21.02c11.34,3.78,23.15,5.43,35.2,5.43,10.87,0,21.5-1.42,31.89-4.49l136.53-40.4c12.28-3.31,25.04-3.31,37.32,0l56.22,18.9c13.94,3.54,28.35,3.54,42.52.71,13.94-3.07,26.93-9.21,38.27-18.19,11.34-8.74,20.31-20.08,26.69-32.83,6.14-12.99,9.45-26.93,9.45-41.34v-121.65c0-24.33-7.79-48.19-21.73-68.27-14.17-19.84-34.25-34.96-57.16-42.99h0ZM182.93,88.94c12.99-13.23,28.58-23.62,45.83-30.71,17.25-7.08,35.67-10.87,54.33-10.87s37.09,3.78,54.33,10.87c17.01,7.09,32.6,17.48,45.83,30.71,26.46,26.69,41.34,62.84,41.58,100.39,0,37.56-14.88,73.7-41.34,100.39l-83.86,81.73c-4.49,4.25-10.39,6.61-16.53,6.61s-11.81-2.36-16.3-6.61l-83.86-81.26c-26.69-26.69-41.58-63.07-41.58-100.63s14.88-73.94,41.58-100.63ZM519.31,449.41c0,7.08-1.65,14.17-4.72,20.79-3.07,6.38-7.8,12.05-13.47,16.3-5.2,4.25-11.34,7.32-17.95,8.98-6.85,1.66-13.7,1.89-20.31.47l-55.51-18.66c-20.79-5.91-42.99-6.14-64.01-.47l-136.77,40.39c-12.99,3.78-26.93,3.54-39.92-.71l-68.5-21.26c-14.65-4.25-27.64-13.23-36.85-25.51-9.45-12.28-14.41-27.17-14.41-42.52v-96.38c0-9.45,1.89-18.9,5.67-27.88,3.54-8.74,9.21-16.53,16.06-23.15,10.87-10.39,24.56-17.01,39.45-19.13,9.45,23.62,23.62,45.12,41.58,63.07l84.33,81.5c13.23,12.99,30.94,20.08,49.37,20.08s36.14-7.09,49.13-20.08l84.33-81.73c18.66-18.9,33.31-41.57,42.75-66.61l12.76,4.25c13.7,4.96,25.51,13.94,34.01,25.75,8.51,12.05,12.99,26.22,12.99,40.87v121.65Z"/></svg>