<?xml version="1.0" encoding="UTF-8"?><svg id="_레이어_1" xmlns="http://www.w3.org/2000/svg" viewBox="0 0 566.93 566.93"><defs><style>.cls-1{fill:#ff4b26;}.cls-2{fill:#0f993e;}.cls-3{fill:#12b347;}.cls-4{fill:#ffd500;}.cls-5{fill:#d93f21;}.cls-6{fill:#167ee6;}</style></defs><path class="cls-6" d="M545.52,234.18h-231.25c-10.21-.01-18.49,8.26-18.49,18.48v73.87c0,10.21,8.28,18.49,18.49,18.49h130.22c-14.26,37.01-40.87,68-74.83,87.69l55.53,96.12c89.07-51.51,141.73-141.9,141.73-243.08,0-14.41-1.06-24.71-3.19-36.3-1.61-8.81-9.26-15.26-18.22-15.26Z"/><path class="cls-3" d="M283.46,456.01c-63.73,0-119.36-34.82-149.24-86.34l-96.12,55.4c48.91,84.78,140.55,141.86,245.36,141.86,51.42,0,99.94-13.84,141.73-37.97v-.13l-55.53-96.12c-25.4,14.73-54.79,23.3-86.21,23.3Z"/><path class="cls-2" d="M425.2,528.96v-.13l-55.53-96.12c-25.4,14.73-54.79,23.3-86.21,23.3v110.92c51.42,0,99.94-13.84,141.73-37.97Z"/><path class="cls-4" d="M110.92,283.46c0-31.41,8.57-60.8,23.3-86.2l-96.12-55.4C13.84,183.53,0,231.91,0,283.46s13.84,99.94,38.1,141.6l96.12-55.4c-14.73-25.4-23.3-54.79-23.3-86.2Z"/><path class="cls-1" d="M283.46,110.92c41.56,0,79.73,14.77,109.55,39.33,7.36,6.06,18.05,5.62,24.78-1.12l52.34-52.34c7.64-7.64,7.1-20.16-1.07-27.24C419.11,26.21,354.12,0,283.46,0,178.65,0,87.02,57.09,38.1,141.86l96.12,55.4c29.88-51.53,85.51-86.34,149.24-86.34Z"/><path class="cls-5" d="M393.01,150.25c7.36,6.06,18.05,5.62,24.78-1.12l52.34-52.34c7.64-7.64,7.1-20.16-1.07-27.24C419.11,26.21,354.12,0,283.46,0v110.92c41.56,0,79.73,14.77,109.55,39.33Z"/></svg>