<?xml version="1.0" encoding="UTF-8"?><svg id="_레이어_1" xmlns="http://www.w3.org/2000/svg" viewBox="0 0 566.93 566.93"><defs><style>.cls-1{fill:#364856;}</style></defs><path class="cls-1" d="M467.33,76.85c-100.84-101.79-265.09-102.56-366.87-1.71C-1.32,175.99-2.09,340.26,98.75,442.05c.79.79,1.58,1.58,2.37,2.36l92.99,85.88c49.7,48.66,129.11,48.87,179.07.47l94.14-87.01c101.31-101.32,101.31-265.59,0-366.91ZM425.4,319.27c0,32.56-26.4,58.96-58.96,58.96h-165.08c-32.56,0-58.96-26.4-58.96-58.96v-79.53c0-23.2,11.37-44.92,30.42-58.14l70.75-49.08c24.27-16.77,56.39-16.77,80.66,0l70.75,49.08c19.06,13.22,30.42,34.94,30.42,58.14v79.53ZM378.23,239.74v79.53c0,6.51-5.28,11.79-11.79,11.79h-35.38v-47.17c0-13.03-10.56-23.59-23.58-23.59h-47.17c-13.02,0-23.58,10.56-23.58,23.59v47.17h-35.38c-6.51,0-11.79-5.28-11.79-11.79v-79.53c0-7.73,3.79-14.98,10.14-19.39l70.75-49.08c8.1-5.57,18.79-5.57,26.88,0l70.75,49.08c6.35,4.41,10.14,11.65,10.14,19.39Z"/></svg>