<?xml version="1.0" encoding="UTF-8"?><svg id="_레이어_1" xmlns="http://www.w3.org/2000/svg" viewBox="0 0 566.93 566.93"><defs><style>.cls-1{fill:#ffe177;}.cls-2{fill:#3c87d0;}.cls-3{fill:#ffd15b;}.cls-4{fill:#918291;}.cls-5{fill:#6ed5a1;}.cls-6{fill:#91deb6;}.cls-7{fill:#7bacdf;}.cls-8{fill:#5f99d7;}.cls-9{fill:#e2dee2;}.cls-10{fill:#f3f0f3;}</style></defs><path class="cls-7" d="M566.69,81.21c0-15.78-12.77-28.58-28.52-28.58H28.28C12.52,52.64-.24,65.43-.24,81.21v42.45l283.46,17.76,283.46-17.76v-42.45Z"/><path class="cls-8" d="M544.58,53.36c.29,1.62.43,3.28.43,4.99v66.66l21.67-1.35v-42.44c0-13.57-9.44-24.94-22.1-27.85h0Z"/><path class="cls-10" d="M-.24,123.66v362.03c0,15.78,12.77,28.59,28.51,28.59h509.89c15.75,0,28.51-12.8,28.51-28.59V123.66H-.24Z"/><path class="cls-9" d="M545.01,123.66v339.17c0,15.78-12.77,28.59-28.52,28.59H6.6c-2.2,0-4.35-.26-6.41-.72,2.36,13.41,14.03,23.59,28.08,23.59h509.89c15.75,0,28.51-12.8,28.51-28.59V123.66h-21.67.01Z"/><path class="cls-2" d="M70.62,96.73h-35.43c-4.73,0-8.56-3.84-8.56-8.58s3.83-8.58,8.56-8.58h35.43c4.73,0,8.56,3.84,8.56,8.58s-3.83,8.58-8.56,8.58Z"/><path class="cls-10" d="M525.55,96.73c4.73,0,8.56-3.84,8.56-8.58s-3.83-8.58-8.56-8.58-8.56,3.84-8.56,8.58,3.83,8.58,8.56,8.58Z"/><path class="cls-10" d="M490.12,96.73c4.73,0,8.56-3.84,8.56-8.58s-3.83-8.58-8.56-8.58-8.56,3.84-8.56,8.58,3.83,8.58,8.56,8.58Z"/><path class="cls-10" d="M454.68,96.73c4.73,0,8.56-3.84,8.56-8.58s-3.83-8.58-8.56-8.58-8.56,3.84-8.56,8.58,3.83,8.58,8.56,8.58Z"/><path class="cls-1" d="M106.06,247.95l80.39,62.81c20.92-8.84,29.06-16.72,24.64-45.05l-105.03-17.76Z"/><path class="cls-3" d="M211.59,263.06c-3.43,19.38-13.14,36.58-26.95,49.43l19.49,16c16.03-16.07,25.94-38.26,25.94-62.78l-18.48-2.64h0Z"/><path class="cls-7" d="M211.08,265.7c28.82-25.32-14.15-69.25-14.15-69.25-15.18-12.22-34.46-19.53-55.44-19.53l-17.72,53.27,17.72,35.51h69.59Z"/><path class="cls-6" d="M141.49,176.93c-48.92,0-88.58,39.75-88.58,88.78,0,18.97,5.94,36.53,16.03,50.96,16.02,22.87,43.64,29.25,73.65,29.25,24.46,0,27.83-19.09,43.86-35.16l-44.96-45.05v-88.78Z"/><path class="cls-8" d="M212.96,247.42c0,6.27-.65,12.38-1.88,18.29h18.99c0-28-12.93-52.98-33.14-69.25,10.11,14.43,16.03,31.99,16.03,50.96Z"/><path class="cls-5" d="M124.38,336.19c-20.98,0-40.26-7.31-55.43-19.53,16.02,22.87,42.54,37.82,72.55,37.82,24.46,0,46.61-9.93,62.64-26l-17.68-17.72c-15.98,15.72-37.89,25.44-62.06,25.44h-.01Z"/><path class="cls-1" d="M333.51,354.48h-29.73c-1.57,0-2.86-1.28-2.86-2.86v-83.06c0-1.58,1.27-2.85,2.86-2.85h29.73c1.57,0,2.86,1.28,2.86,2.85v83.06c0,1.58-1.27,2.86-2.86,2.86Z"/><path class="cls-6" d="M404.38,354.48h-29.73c-1.57,0-2.86-1.28-2.86-2.86v-136.33c0-1.58,1.27-2.85,2.86-2.85h29.73c1.57,0,2.86,1.28,2.86,2.85v136.33c0,1.58-1.27,2.86-2.86,2.86Z"/><path class="cls-7" d="M475.25,354.48h-29.73c-1.57,0-2.86-1.28-2.86-2.86v-65.31c0-1.58,1.27-2.86,2.86-2.86h29.73c1.57,0,2.86,1.28,2.86,2.86v65.31c0,1.58-1.27,2.86-2.86,2.86Z"/><path class="cls-1" d="M271.21,389.99c-3.16,0-5.7,2.56-5.7,5.72v24.08c0,3.16,2.56,5.71,5.7,5.71h47.45l17.72-17.76-17.72-17.76h-47.45Z"/><path class="cls-6" d="M507.83,389.99h-100.6l-17.72,17.76,17.72,17.76h100.6c3.16,0,5.7-2.56,5.7-5.71v-24.08c0-3.16-2.56-5.72-5.7-5.72Z"/><path class="cls-7" d="M318.65,389.99h88.58v35.51h-88.58v-35.51Z"/><path class="cls-4" d="M513.54,363.06h-248.03c-4.73,0-8.56-3.84-8.56-8.58s3.83-8.58,8.56-8.58h248.03c4.73,0,8.56,3.84,8.56,8.58s-3.83,8.58-8.56,8.58Z"/><path class="cls-4" d="M212.35,416.33h-124.02c-4.73,0-8.56-3.84-8.56-8.58s3.83-8.58,8.56-8.58h124.02c4.73,0,8.56,3.84,8.56,8.58s-3.83,8.58-8.56,8.58Z"/><path class="cls-4" d="M212.35,451.84h-124.02c-4.73,0-8.56-3.84-8.56-8.58s3.83-8.58,8.56-8.58h124.02c4.73,0,8.56,3.84,8.56,8.58s-3.83,8.58-8.56,8.58Z"/><path class="cls-7" d="M52.91,416.33c4.73,0,8.56-3.84,8.56-8.58s-3.83-8.58-8.56-8.58-8.56,3.84-8.56,8.58,3.83,8.58,8.56,8.58Z"/><path class="cls-6" d="M52.91,451.84c4.73,0,8.56-3.84,8.56-8.58s-3.83-8.58-8.56-8.58-8.56,3.84-8.56,8.58,3.83,8.58,8.56,8.58Z"/></svg>