<?xml version="1.0" encoding="UTF-8"?><svg id="_레이어_1" xmlns="http://www.w3.org/2000/svg" viewBox="0 0 566.93 566.93"><defs><style>.cls-1{fill:#888;}</style></defs><path class="cls-1" d="M413.39,45.36c-26.6.24-52.63,7.79-75.43,21.49-22.82,13.7-41.62,33.07-54.5,56.46-12.87-23.39-31.68-42.75-54.5-56.46-22.82-13.7-48.83-21.26-75.43-21.49-42.4,1.65-82.35,20.31-111.12,51.49C13.65,128.03-1.61,169.37,0,211.89c0,107.25,113.06,224.65,207.87,304.25,21.17,17.72,47.93,27.4,75.59,27.4s54.43-9.69,75.59-27.4c94.82-79.61,207.87-197.01,207.87-304.25,1.61-42.52-13.65-83.86-42.43-115.04-28.77-31.18-68.72-49.84-111.12-51.49Z"/></svg>